<svg width="115" height="90" viewBox="0 0 115 90" fill="none" xmlns="http://www.w3.org/2000/svg">
<path d="M0.868675 0.999994H30.6253C32.2064 0.833327 36.0687 2.09999 38.8687 8.49999C41.6687 14.9 52.0353 32.1667 56.8687 40L40.3687 69L0.868675 0.999994Z" fill="#F7934C" stroke="#F7934C"/>
<path d="M57.3687 40L77.3687 5L78.3687 3.5C79.202 2.5 81.2687 0.5 82.8687 0.5H86.8687H113.71L91.8687 39L67.8687 80.5L65.8687 84C63.5353 87.6667 56.7687 92.8 48.3687 84L40.8687 69.5L57.3687 40Z" fill="#F7B05B"/>
<path d="M82.8687 0.5C81.2687 0.5 79.202 2.5 78.3687 3.5L77.3687 5L57.3687 40L40.8687 69.5L48.3687 84C56.7687 92.8 63.5353 87.6667 65.8687 84L67.8687 80.5L91.8687 39L113.71 0.5H86.8687M82.8687 0.5C84.4687 0.5 86.202 0.5 86.8687 0.5M82.8687 0.5H86.8687" stroke="#F7B05B"/>
</svg>
